# xmcd
#
# Track frame offsets:
#	150
#	14114
#	30858
#	44372
#	58254
#	73509
#	91000
#	106960
#	125728
#
# Disc length: 1926 seconds
#
# Revision: 1
# Processed by: cddbd v1.5.1PL0 Copyright (c) Steve Scherf et al.
# Submitted via: audiograbber 1.83.01
#
DISCID=75078409
DTITLE=Алиби - С чистого листа
DYEAR=2005
DGENRE=R&B
TTITLE0=С чистого листа
TTITLE1=Исповедь
TTITLE2=Если мы
TTITLE3=Да или нет
TTITLE4=Фламенко
TTITLE5=Рай между нами
TTITLE6=Не ревнуй
TTITLE7=Десять дней
TTITLE8=Табу (Бонус трек)
EXTD=Ripped by Sentinel (sentinel1982@gmail.com)
EXTT0=
EXTT1=
EXTT2=
EXTT3=
EXTT4=
EXTT5=
EXTT6=
EXTT7=
EXTT8=
PLAYORDER=
